<svg xmlns="http://www.w3.org/2000/svg" viewBox="0 0 269.49 104.67"><defs><style>.cls-1{isolation:isolate;}.cls-2,.cls-3,.cls-6{opacity:0.75;}.cls-2{font-size:28px;font-family:Bitter-Bold, Bitter;font-weight:700;letter-spacing:0.03em;}.cls-2,.cls-6{fill:#bf2028;}.cls-3{mix-blend-mode:darken;}.cls-4{fill:#536ab2;}.cls-5{fill:#164aa0;}</style></defs><title>logo</title><g class="cls-1"><g id="Layer_1" data-name="Layer 1"><text class="cls-2" transform="translate(87.8 60.2)">confe</text><g class="cls-3"><path class="cls-4" d="M183.81,53.48l-9.3.08a4.13,4.13,0,0,0,1,2.69,3.09,3.09,0,0,0,2.34,1,8.39,8.39,0,0,0,2.21-.32,9.5,9.5,0,0,0,1.82-.66l.67-.34,1.2,2.24q-.31.25-.87.64a12.39,12.39,0,0,1-2.24,1,9,9,0,0,1-3.28.66,7.09,7.09,0,0,1-5.42-2,7.83,7.83,0,0,1-1.86-5.59,8.5,8.5,0,0,1,2-5.92,7,7,0,0,1,5.49-2.2,6.17,6.17,0,0,1,4.73,1.76A6.77,6.77,0,0,1,184,51.38Zm-6.5-5.4a2.4,2.4,0,0,0-1.86.78,3.72,3.72,0,0,0-.88,2.1h5Q179.62,48.08,177.32,48.08Z"/><path class="cls-4" d="M202.43,60l-5.88.2-.25-1.48a5.77,5.77,0,0,1-4.23,1.76,5,5,0,0,1-4.31-2A9.24,9.24,0,0,1,186.33,53a8.52,8.52,0,0,1,2-6.09q2-2.11,5.92-2.11a6.07,6.07,0,0,1,1.82.28V41.53L193.84,41V38.73l6.36-.22v18.7l2.24.56Zm-6.36-4.4V48.44a4.38,4.38,0,0,0-2.18-.42q-3.22,0-3.22,4.76,0,4.42,2.69,4.42a2.83,2.83,0,0,0,1.47-.41,3.15,3.15,0,0,0,1-.8Z"/><path class="cls-4" d="M218.31,53.48l-9.3.08a4.13,4.13,0,0,0,1,2.69,3.09,3.09,0,0,0,2.34,1,8.39,8.39,0,0,0,2.21-.32,9.49,9.49,0,0,0,1.82-.66l.67-.34,1.2,2.24q-.31.25-.87.64a12.39,12.39,0,0,1-2.24,1,9,9,0,0,1-3.28.66,7.09,7.09,0,0,1-5.42-2,7.83,7.83,0,0,1-1.86-5.59,8.5,8.5,0,0,1,2-5.92,7,7,0,0,1,5.49-2.2,6.17,6.17,0,0,1,4.73,1.76,6.77,6.77,0,0,1,1.65,4.82Zm-6.5-5.4a2.4,2.4,0,0,0-1.86.78,3.73,3.73,0,0,0-.88,2.1h5Q214.11,48.08,211.81,48.08Z"/><path class="cls-4" d="M220.91,45.3l5.8-.22.2,1.93q.31-.25.81-.6a12.69,12.69,0,0,1,1.86-1,6.17,6.17,0,0,1,2.48-.6,3.75,3.75,0,0,1,3.09,1.33,5.64,5.64,0,0,1,1.08,3.65v7.42q.36.11,1,.36l.92.34V60.2h-7.56V58l1.48-.7V50.48a2.46,2.46,0,0,0-.52-1.61,1.7,1.7,0,0,0-1.39-.63,3.14,3.14,0,0,0-1.53.41,4.39,4.39,0,0,0-1.11.8l-.36.39v7.42l1.46.7V60.2h-7.76V58l2.16-.7V48.11l-2.16-.56Z"/><path class="cls-4" d="M252.27,55.72l1.4,2.38a8.93,8.93,0,0,1-6,2.38,7,7,0,0,1-5.36-2,7.8,7.8,0,0,1-1.92-5.6,8.27,8.27,0,0,1,2-5.91,7.41,7.41,0,0,1,5.67-2.16,12.19,12.19,0,0,1,2.3.24,13.62,13.62,0,0,1,1.93.49l.67.25-.14,4.56h-2.52l-.39-2a7.32,7.32,0,0,0-1.93-.22,2.94,2.94,0,0,0-2.42,1,4.92,4.92,0,0,0-.85,3.15,6.32,6.32,0,0,0,.88,3.64,3,3,0,0,0,2.62,1.26,5.57,5.57,0,0,0,1.06-.1,5.14,5.14,0,0,0,1-.29q.48-.2.74-.34l.73-.42Z"/><path class="cls-4" d="M269.33,53.48l-9.3.08a4.13,4.13,0,0,0,1,2.69,3.09,3.09,0,0,0,2.34,1,8.39,8.39,0,0,0,2.21-.32,9.49,9.49,0,0,0,1.82-.66l.67-.34,1.2,2.24q-.31.25-.87.64a12.39,12.39,0,0,1-2.24,1,9,9,0,0,1-3.28.66,7.09,7.09,0,0,1-5.42-2,7.83,7.83,0,0,1-1.86-5.59,8.5,8.5,0,0,1,2-5.92,7,7,0,0,1,5.49-2.2,6.17,6.17,0,0,1,4.73,1.76,6.77,6.77,0,0,1,1.65,4.82Zm-6.5-5.4a2.4,2.4,0,0,0-1.86.78,3.73,3.73,0,0,0-.88,2.1h5Q265.12,48.08,262.83,48.08Z"/></g><g class="cls-3"><path class="cls-4" d="M75.6,65.34a28,28,0,1,1,0-28L95.78,25.67a51.33,51.33,0,1,0,0,51.33Z"/><path class="cls-5" d="M75.6,65.34a28,28,0,1,1,0-28L95.78,25.67a51.33,51.33,0,1,0,0,51.33Z"/></g><path class="cls-6" d="M81.6,67.34a28,28,0,1,1,0-28l20.18-11.65a51.33,51.33,0,1,0,0,51.33Z"/></g></g></svg>