<svg xmlns="http://www.w3.org/2000/svg" viewBox="0 0 269.49 104.67"><defs><style>.cls-1{isolation:isolate;}.cls-2,.cls-4,.cls-7{opacity:0.75;}.cls-3,.cls-7{fill:#bf2028;}.cls-4{mix-blend-mode:darken;}.cls-5{fill:#536ab2;}.cls-6{fill:#164aa0;}</style></defs><title>logo</title><g class="cls-1"><g id="Layer_1" data-name="Layer 1"><g class="cls-2"><path class="cls-3" d="M100.54,55.72l1.4,2.38a8.93,8.93,0,0,1-6,2.38,7,7,0,0,1-5.36-2,7.79,7.79,0,0,1-1.92-5.6,8.27,8.27,0,0,1,2-5.91,7.41,7.41,0,0,1,5.67-2.16,12.19,12.19,0,0,1,2.3.24,13.63,13.63,0,0,1,1.93.49l.67.25-.14,4.56H98.58l-.39-2a7.33,7.33,0,0,0-1.93-.22,2.94,2.94,0,0,0-2.42,1A4.91,4.91,0,0,0,93,52.3a6.32,6.32,0,0,0,.88,3.64,3,3,0,0,0,2.62,1.26,5.56,5.56,0,0,0,1.06-.1,5.15,5.15,0,0,0,1-.29q.48-.2.74-.34l.73-.42Z"/><path class="cls-3" d="M111.46,44.8a6.77,6.77,0,0,1,5.22,2,7.9,7.9,0,0,1,1.83,5.59,8.38,8.38,0,0,1-2,5.94A7.08,7.08,0,0,1,111,60.48q-7.14,0-7.14-7.7a8.09,8.09,0,0,1,2-5.87A7.32,7.32,0,0,1,111.46,44.8ZM111.32,48a2.68,2.68,0,0,0-2.34,1,6.41,6.41,0,0,0-.74,3.58,6.77,6.77,0,0,0,.7,3.51,2.45,2.45,0,0,0,2.24,1.11,2.53,2.53,0,0,0,2.27-1.09,6.89,6.89,0,0,0,.73-3.67,6.54,6.54,0,0,0-.69-3.37A2.37,2.37,0,0,0,111.32,48Z"/><path class="cls-3" d="M121.18,45.3l5.8-.22.2,1.93q.31-.25.81-.6a12.69,12.69,0,0,1,1.86-1,6.17,6.17,0,0,1,2.48-.6,3.75,3.75,0,0,1,3.09,1.33,5.64,5.64,0,0,1,1.08,3.65v7.42q.36.11,1,.36l.92.34V60.2h-7.56V58l1.48-.7V50.48a2.46,2.46,0,0,0-.52-1.61,1.7,1.7,0,0,0-1.39-.63,3.14,3.14,0,0,0-1.53.41,4.39,4.39,0,0,0-1.11.8l-.36.39v7.42l1.46.7V60.2h-7.76V58l2.16-.7V48.11l-2.16-.56Z"/><path class="cls-3" d="M143.77,45.36V44.1a6,6,0,0,1,1.54-4.34,5.87,5.87,0,0,1,4.42-1.6,12,12,0,0,1,2.56.27,9.75,9.75,0,0,1,1.78.52l.56.25-.08,4.14h-2.44l-.42-2.07a10.45,10.45,0,0,0-1.62-.11q-2.16,0-2.16,2.46v1.74h3.64l-.08,2.8h-3.56v9.1l2.69.7V60.2h-9.07V58l2.24-.7v-9.1h-2.52V45.78Z"/><path class="cls-3" d="M168.19,53.48l-9.3.08a4.13,4.13,0,0,0,1,2.69,3.09,3.09,0,0,0,2.34,1,8.39,8.39,0,0,0,2.21-.32,9.49,9.49,0,0,0,1.82-.66l.67-.34,1.2,2.24q-.31.25-.87.64a12.39,12.39,0,0,1-2.24,1,9,9,0,0,1-3.28.66,7.09,7.09,0,0,1-5.42-2,7.83,7.83,0,0,1-1.86-5.59,8.5,8.5,0,0,1,2-5.92A7,7,0,0,1,162,44.8a6.17,6.17,0,0,1,4.73,1.76,6.77,6.77,0,0,1,1.65,4.82Zm-6.5-5.4a2.4,2.4,0,0,0-1.86.78,3.73,3.73,0,0,0-.88,2.1h5Q164,48.08,161.69,48.08Z"/></g><g class="cls-4"><path class="cls-5" d="M183.81,53.48l-9.3.08a4.13,4.13,0,0,0,1,2.69,3.09,3.09,0,0,0,2.34,1,8.39,8.39,0,0,0,2.21-.32,9.5,9.5,0,0,0,1.82-.66l.67-.34,1.2,2.24q-.31.25-.87.64a12.39,12.39,0,0,1-2.24,1,9,9,0,0,1-3.28.66,7.09,7.09,0,0,1-5.42-2,7.83,7.83,0,0,1-1.86-5.59,8.5,8.5,0,0,1,2-5.92,7,7,0,0,1,5.49-2.2,6.17,6.17,0,0,1,4.73,1.76A6.77,6.77,0,0,1,184,51.38Zm-6.5-5.4a2.4,2.4,0,0,0-1.86.78,3.72,3.72,0,0,0-.88,2.1h5Q179.62,48.08,177.32,48.08Z"/><path class="cls-5" d="M202.43,60l-5.88.2-.25-1.48a5.77,5.77,0,0,1-4.23,1.76,5,5,0,0,1-4.31-2A9.24,9.24,0,0,1,186.33,53a8.52,8.52,0,0,1,2-6.09q2-2.11,5.92-2.11a6.07,6.07,0,0,1,1.82.28V41.53L193.84,41V38.73l6.36-.22v18.7l2.24.56Zm-6.36-4.4V48.44a4.38,4.38,0,0,0-2.18-.42q-3.22,0-3.22,4.76,0,4.42,2.69,4.42a2.83,2.83,0,0,0,1.47-.41,3.15,3.15,0,0,0,1-.8Z"/><path class="cls-5" d="M218.31,53.48l-9.3.08a4.13,4.13,0,0,0,1,2.69,3.09,3.09,0,0,0,2.34,1,8.39,8.39,0,0,0,2.21-.32,9.49,9.49,0,0,0,1.82-.66l.67-.34,1.2,2.24q-.31.25-.87.64a12.39,12.39,0,0,1-2.24,1,9,9,0,0,1-3.28.66,7.09,7.09,0,0,1-5.42-2,7.83,7.83,0,0,1-1.86-5.59,8.5,8.5,0,0,1,2-5.92,7,7,0,0,1,5.49-2.2,6.17,6.17,0,0,1,4.73,1.76,6.77,6.77,0,0,1,1.65,4.82Zm-6.5-5.4a2.4,2.4,0,0,0-1.86.78,3.73,3.73,0,0,0-.88,2.1h5Q214.11,48.08,211.81,48.08Z"/><path class="cls-5" d="M220.91,45.3l5.8-.22.2,1.93q.31-.25.81-.6a12.69,12.69,0,0,1,1.86-1,6.17,6.17,0,0,1,2.48-.6,3.75,3.75,0,0,1,3.09,1.33,5.64,5.64,0,0,1,1.08,3.65v7.42q.36.11,1,.36l.92.34V60.2h-7.56V58l1.48-.7V50.48a2.46,2.46,0,0,0-.52-1.61,1.7,1.7,0,0,0-1.39-.63,3.14,3.14,0,0,0-1.53.41,4.39,4.39,0,0,0-1.11.8l-.36.39v7.42l1.46.7V60.2h-7.76V58l2.16-.7V48.11l-2.16-.56Z"/><path class="cls-5" d="M252.27,55.72l1.4,2.38a8.93,8.93,0,0,1-6,2.38,7,7,0,0,1-5.36-2,7.8,7.8,0,0,1-1.92-5.6,8.27,8.27,0,0,1,2-5.91,7.41,7.41,0,0,1,5.67-2.16,12.19,12.19,0,0,1,2.3.24,13.62,13.62,0,0,1,1.93.49l.67.25-.14,4.56h-2.52l-.39-2a7.32,7.32,0,0,0-1.93-.22,2.94,2.94,0,0,0-2.42,1,4.92,4.92,0,0,0-.85,3.15,6.32,6.32,0,0,0,.88,3.64,3,3,0,0,0,2.62,1.26,5.57,5.57,0,0,0,1.06-.1,5.14,5.14,0,0,0,1-.29q.48-.2.74-.34l.73-.42Z"/><path class="cls-5" d="M269.33,53.48l-9.3.08a4.13,4.13,0,0,0,1,2.69,3.09,3.09,0,0,0,2.34,1,8.39,8.39,0,0,0,2.21-.32,9.49,9.49,0,0,0,1.82-.66l.67-.34,1.2,2.24q-.31.25-.87.64a12.39,12.39,0,0,1-2.24,1,9,9,0,0,1-3.28.66,7.09,7.09,0,0,1-5.42-2,7.83,7.83,0,0,1-1.86-5.59,8.5,8.5,0,0,1,2-5.92,7,7,0,0,1,5.49-2.2,6.17,6.17,0,0,1,4.73,1.76,6.77,6.77,0,0,1,1.65,4.82Zm-6.5-5.4a2.4,2.4,0,0,0-1.86.78,3.73,3.73,0,0,0-.88,2.1h5Q265.12,48.08,262.83,48.08Z"/></g><g class="cls-4"><path class="cls-5" d="M75.6,65.34a28,28,0,1,1,0-28L95.78,25.67a51.33,51.33,0,1,0,0,51.33Z"/><path class="cls-6" d="M75.6,65.34a28,28,0,1,1,0-28L95.78,25.67a51.33,51.33,0,1,0,0,51.33Z"/></g><path class="cls-7" d="M81.6,67.34a28,28,0,1,1,0-28l20.18-11.65a51.33,51.33,0,1,0,0,51.33Z"/></g></g></svg>